<svg xmlns="http://www.w3.org/2000/svg" viewBox="0 0 3588 1923"><path fill="#f7f5ef" d="M1837.4 18.3h2.8c47.9 1.2 95.6 4.5 142.8 12.7l3.3.5c38.5 6.5 77.3 18 112.7 34.5l3.4 1.6a434 434 0 0 1 64 35.3q20 13 38.6 28.1l1.7 1.3a363 363 0 0 1 28.4 26.5A250 250 0 0 1 2255 181l4.7 5.4a268 268 0 0 1 43 70.4l5.8 12.2c10.3 22.6 16.7 48 20.7 72.4l.5 2.9q3.8 26 3.6 52.4v2.9c0 15.3-.7 30.3-3.3 45.4l-.5 3.2A321 321 0 0 1 2269 591l-1.4 1.9-9.6 12.1-1.4 1.7q-10.6 12.6-22.2 24.2l-2.6 2.6a202 202 0 0 1-16.3 14.5q-3.8 3-7.6 6.4A248 248 0 0 1 2182 674l-2 1.4a400 400 0 0 1-56.3 31.7 454 454 0 0 1-72.5 27.8c-57.8 17.1-57.8 17.1-81.2 16.1-1.8-1.8-1.1-4.4-1.1-6.8v-38.8l-.2-60.5v-55.5l-.3-178.7c0-53.7-10-104.5-48.9-144.1l-4.5-4.8a159 159 0 0 0-44-31.8l-1.8-1a177 177 0 0 0-132.2-10 185 185 0 0 0-70.5 44.3 174 174 0 0 0-51.6 116.6v17l.2 64 .1 50.2v22l.1 43.2.2 69 .3 142.5v37.7a50 50 0 0 1-7.8 30.5l-6.2 11q-6.7 11.6-12.7 23.4-7 13.5-14.7 26.5-6.4 10.6-12.4 21.6a1599 1599 0 0 1-25.3 44 869 869 0 0 1-15.5 26.2q-8.2 13.6-16.6 27-6.7 10.6-13 21.6-4.5 7.8-9.8 15-5.9 9-11.3 18c-9.8 15.9-9.8 15.9-13.5 17.7l-7 .1h-69l-95 .1h-3.9c-3-.2-3-.2-5-2.2-.4-3.4-.4-3.4 0-7 4.2-3.3 9.3-4.6 14.3-6.2a161 161 0 0 0 29.7-13.3 97 97 0 0 0 46.3-56.3l.7-2c6-18.7 5.4-38.1 5.4-57.5V144.4c.1-29.4-9.5-54.2-29.7-75.8-16.6-16.3-40.1-25.7-62.3-31.7-2.4-.9-2.4-.9-4.4-3.9.2-3.1.2-3.1 1-6 3-1.5 5.6-1.2 9-1.2h9.5l5.2-.1 58.7-.6 63.6-.6a9638 9638 0 0 0 179.8-3l2.6-.1 52-1q24.7-.3 49.3-.9l5.7-.1 22.8-.6q50.6-1.5 101.2-.5M1567 1338c4.2 1.6 6.8 4.7 9.7 8l1.6 1.7q5.9 6.5 11.3 13.4 9.8 11.8 20.2 23.2a302 302 0 0 1 10.8 12.8l7.9 9.4q8.5 10 16.7 20.3 6.6 8 13.6 15.7 4.5 5.2 8.7 10.5l8.6 10a557 557 0 0 1 15.7 19.3 329 329 0 0 0 14.3 17c2.2 2.5 3.8 4.4 4.9 7.7 2.6-.1 4.5-.5 6.5-2.3l4.7-5.5 1.7-2q6.5-7.8 12.5-15.8 5.3-6.8 10.7-13.4l10.5-13.1q5.5-7.2 11.5-14 6.6-7.5 12.4-15.7 8.8-11.5 18.3-22.3 10.6-12.9 20.6-26 5.5-7.1 11.6-13.7 4-4.5 7.8-9.5 6.5-8 13.2-15.7l4 1 4.5 48 .2 2.2 2 25.7.2 2.5.2 2.5q1.5 20.4 3.7 40.8 2.1 20.7 3.8 41.4 1 12.9 2.4 25.8 1.7 15 2.6 30l4.8 59.8.7 8.4.2 2.7 1.3 14.4.2 3.1.6 6c1.3 14.3 1.3 14.3-.4 17.7h-64c-1.4-4.8-2.3-8-2.6-12.7l-.2-3.3-.2-3.5-.2-3.7-.8-11.6c-1.9-29-1.9-29-3-38a532 532 0 0 1-2.4-27l-2.4-33-.1-2.2-3.1-36h-3l-.7 1.7a35 35 0 0 1-5.5 7l-2.4 2.7-2.4 2.6a561 561 0 0 0-19.1 23c-9.7 11.9-9.7 11.9-14.5 17.1q-5.9 6.5-11.2 13.5-5.4 7-11.2 13.7l-8.7 10.5-11.3 13.2c-9-3.6-15.9-15-21.7-22.4a777 777 0 0 0-26.1-31.7l-15.4-18.7q-6.4-8-13.3-15.4l-5.7-6.5-1.6-2-7.2-8.3h-2l-3 56.4v2.6l-.6 10.6c-2.4 53.4-2.4 53.4-3.8 77.5l-.9 14.2-.1 2.3c-.4 5.2-.4 5.2-2.6 7.4-2.5.2-2.5.2-5.8.2h-52.8c-2.4-.2-2.4-.2-3.4-1.2-1-15 .7-30.4 1.5-45.4l1.4-24.3.2-2.5q1.3-23.7 2.4-47.5l.2-3.8 1.6-35.6a17741 17741 0 0 1 8.2-164.8c.3-4.9.3-4.9 2.5-7.1m-827 0c3.1 0 5.2.4 7.7 2.4l3.5 3.7c4 4.2 8.5 7.8 13 11.6q9.8 8.4 19.3 17.1 5.2 4.9 10.6 9.5L806 1393l32.3 29q6.5 6 13.5 11.8 5.6 4.4 10.5 9.5 3.7 3.6 7.5 6.8l7.2 6.4 8.8 7.8 12.4 11.3a435 435 0 0 0 17.8 15.9l8.9 7.9 8.4 7.5q7.8 7.3 16 13.9 5.5 4.6 10.7 9.5c2 1.7 2 1.7 4 1.7v-3l.7-176.7v-2.1c0-5 0-5 2.3-7.2 2.6-.3 2.6-.3 5.9-.3h53.5c2.6.3 2.6.3 4.6 2.3l.3 9v31.4l-.1 51.6v100.7l-.1 14.9-.1 123.4c-2.3.6-2.3.6-5 1a57 57 0 0 1-8.6-7l-10.8-9.8-2.4-2.2-6.1-5.4-9.5-8.5q-6.3-5.8-13-11-12-9.6-23.2-20.1-4.7-4.4-9.8-8.4-7.4-6.1-14.4-12.8-6.6-6.2-13.8-11.8-4-3.4-7.5-7.2a99 99 0 0 0-7.2-6.1q-5.6-4.5-10.7-9.7-4.8-5-10.2-9.2-6.9-5.7-13.3-11.8-7.7-7.3-16-14-5-4.2-9.4-8.9-7-6.8-14.9-12.8-6.9-5.5-13.2-11.7a17 17 0 0 0-7-4.6v2.9l-.8 173.9v2.1c0 4.9 0 4.9-1.2 7.1a361 361 0 0 1-46.7.6l-5.9-.2h-5.3l-2.3-.1c-1.8-.3-1.8-.3-3.8-2.3-.2-2.4-.2-2.4-.2-5.4v-321.3c.2-2.3.2-2.3 1.2-3.3m1282.7 4.7h54.2l110.3.1h33.2c5.5 0 5.5 0 6.6 1.2l.1 9v47.6c-.1 2.4-.1 2.4-1.1 3.4l-5.6.2h-12.1l-11.7.1h-12.2l-103.4.7-.1 62.4v3.7c.1 2.9.1 2.9 1.1 4.9h2l111.4.8h9.5c2.1.2 2.1.2 3.1 1.2a101 101 0 0 1 .1 9v46.6c-.1 2.4-.1 2.4-1.1 3.4l-14 .6h-2.3q-31.3.7-62.7.5h-18.8l-28.2-.1v71l31.6.1 107.7.5h3.2l2.5.4c2.2 3.3 2.3 4.4 2.3 8.3v46.3c-.3 2.4-.3 2.4-2.3 5.4a68 68 0 0 1-10.7.4l-14.7.1h-16.7l-17.5.2-63.2.2-77 .3h-2.4c-3.8 0-5.5 0-8.8-2.2-.4-2.3-.4-2.3-.4-5.3v-236.9l.1-2.7v-76.8c.6-5 3.8-4.5 8-4.6M19 1343c2.2-.4 2.2-.4 5-.4h98.7c41.4-.1 77.4 6.6 108.7 35.7 22.5 23 30.1 53.2 29.9 84.4a104 104 0 0 1-34.9 76.9c-23.5 22-55.6 29.4-87 29.7l-37.5.4h-6.7l-4 .1h-3.6c-2.6.2-2.6.2-3.6 1.2l-.2 9v3l-.3 37-.2 24.2v9.8l-.1 8.7c0 6.2 0 6.2-1.2 7.3l-5.8.3h-3.7l-4 .1h-2.1l-43.7 1c-2.7-.4-2.7-.4-4.3-1.6-1.9-2.5-1.8-4.1-1.8-7.2v-237.9l.1-66.1v-10.2c.3-2.4.3-2.4 2.3-5.4m64 64c-.4 2-.4 2-.4 4.1v69.8l.1 15.7v7.5c.3 1.9.3 1.9 2.3 4.9 2.5.4 2.5.4 5.8.4H120c44.4.4 44.4.4 61.7-16a52 52 0 0 0 14.4-38.8 55 55 0 0 0-18.3-38.7c-13.2-11.1-29.5-12.2-46-12.2H88.5c-3 .4-3.7 1-5.6 3.3m1203.1-70.4c2.5 1.7 3.3 3.3 4.6 6l2.8 5.8 1.4 3q4.2 8.3 8 16.8 3.3 7.3 6.8 14.4l1.5 3.3 7.9 16.3q11.2 23.3 22 46.8l3 6.6 10.5 22.6 4.4 9.7 1.5 3.2 7.8 16.7 16.6 36.4q4.8 11.3 10.3 22.1c9.8 19.2 18.2 39.1 26.9 58.9q5.2 12 10.7 23.7l1.5 3.4 5 10.6c1 2.5 1 4.5.8 7.1a48 48 0 0 1-14.6 1.2h-47.7c-2.8-.2-4.4-.7-6.7-2.2-1.4-2.4-1.4-2.4-2.7-5.4l-1.5-3.3-1.5-3.6-1.6-3.7-4.7-11-4-9.4-2.3-5.4-1-2.5-1-2c-.7-1.7-.7-1.7-1.7-2.7l-4.9-.1h-50.8l-69.3.1-8.8 20.3-2.1 5-6.6 15.5-1.3 3.3-1.1 2.8c-1.1 2.1-1.1 2.1-4.1 4.1-2.9.2-2.9.2-6.4.1h-2l-6.3-.1-16.1-.3-11.9-.2-23.3-.5c.6-3.7 1.2-6.9 2.8-10.3l1-2.3 1.2-2.5 2.5-5.5 1.3-2.7 5.3-11.7 1-2.4 7.5-16.7 1-2.2 1-2.3 2-4.6 1-2.3 16-35.4q7.2-15.7 14-31.5t14-31.2l6.2-14 11.7-26 3.7-8.2 6.6-14.7 1-2.1 3.6-8 13.5-30.2q3.3-7.8 7-15.5 4.5-9.6 8.7-19.3l7.4-16.4 1.2-2.8 3-6.5 1.5-3.3c1.5-2.8 2.1-3.8 5.3-2.8m-1 139.4a444 444 0 0 0-18.3 40.3l-1 2.2q-7 16.8-14.6 33.5c-1 3-1.3 5-1.1 8 2.9 1.4 5.3 1.1 8.5 1.1h59.7c2.8-.1 2.8-.1 4.8-1.1a39 39 0 0 0-4.5-14.4l-4.5-10-1.5-3.3-6.2-14.4q-4.6-10.7-9.6-21.2l-3.6-8.1-1-2.3-1.7-4.3q-1.1-2.6-2.4-5zm-816-140c4 1.5 5 3.5 6.8 7.3l1.6 3.3 7 14.8 7.2 15.2 2.6 5.6 5.8 12q8.7 18 16.8 36.2a538 538 0 0 0 16 34.3c9.3 18.1 17.4 36.8 25.8 55.2q6.6 14.8 13.7 29.4 4.3 9 8.3 18l8 17.7 2 4.5q9.3 20.2 18 40.5 4.1 9.5 8.4 18.6c8 16.9 8 16.9 8 21.4-7 1.3-13.9 1.1-21 1h-2l-29.6-.3h-6l-3.6-.1h-3.2c-2.6-.6-2.6-.6-4.4-2.5a75 75 0 0 1-5.4-11.5l-1.5-3.8-1.7-3.8-9.6-23.3c-1.9-4.6-1.9-4.6-3-5.7a82 82 0 0 0-8.1-.1h-28l-89.9.1-1 2.8q-1.4 4.2-3.1 8.1l-1.2 2.8-1.3 3-10.9 25.5c-2.3 5.6-2.3 5.6-4.5 7.8q-3.7.4-7.3.4h-2.3l-11.7.3c-25.4.7-25.4.7-37.6-.2l-2.1-.1-5-.4c-1.3-3-1-4.2.1-7.3l2.8-6 5.1-11.6q5.4-12 11.2-24 4.1-9 7.8-18 6.8-16 14-31.7 7-15 13.6-30l14-31.4 3.9-8.4L404 1476l1.8-4 6.3-14 1-2.5 12.3-27.4 1-2.4 5-11.3 10.6-23a929 929 0 0 0 11.5-25.2c12-26.7 12-26.7 15.5-30.2m0 141a329 329 0 0 0-13.3 29.5l-1 2q-3.1 7.7-6.6 15.3l-1 2.2-3.6 8.4c-9.1 20.6-9.1 20.6-8.5 25.6 1 1 1 1 3.8 1.1h43l25.2-.1c1.4-5.3-.2-8.5-2.6-13.3l-2.5-5.4-1.4-3q-3.9-8.4-7.4-16.9l-7.2-16.4-7.5-17-1.5-3.3-1.4-3-1.2-2.7c-1.3-2-1.3-2-3.5-2.8z"/><path fill="#C0A16C" d="m1816 287 5.7.8c12 2.2 24.9 9.3 33.3 18.2l2.8 1.8q6.6 4.5 12.2 10.2v2l1.9.8c2.4 1.4 3.1 2.4 4.5 4.8q2.5 4.4 5.5 8.5c3.5 5.1 5.6 10.7 7.8 16.5 1.3 3.4 1.3 3.4 2.3 5.4 9 18.5 7.2 45 .7 63.7q-2.5 6.4-5.7 12.3l-1.4 2.9q-5 9.4-10.8 18.2l-1.5 2.3-1.3 1.6h-2l-.8 1.7c-4.9 9-14.5 14.5-23.2 19.3l-2 1.2a107 107 0 0 1-59.6 14.2c-7.4 0-13.5-.9-20.4-3.4l-4-1.2c-7-2.2-13-4.5-19-8.8l-4.2-2.6-1.8-1.2-4.3-2.5A70 70 0 0 1 1707 452l-2-3.2-6-10.8-1.7-3c-4-7.5-6.4-14.9-8.3-23l-.7-2.9c-4.8-24-.7-51 11.7-72.1l1.4-3a62 62 0 0 1 6.8-10l1.5-1.8a76 76 0 0 1 25.2-21.6q8.7-5.5 18.1-9.6l2.1-1.5c4-2.1 8-2.5 12.5-3.1l5.1-.8 2.3-.3c14-2.4 27-1.4 41 1.7"/><path fill="#f7f5ef" d="M3355.8 1349.7h93.3c18.8-.1 37.3.3 55.3 6l2.5.8a77 77 0 0 1 45 35.8q4.7 8.8 7.1 18.7l.5 1.8a79 79 0 0 1 1.8 20.5v3.5c0 11-2.1 20.8-7 30.8l-1 2.2a75 75 0 0 1-33.3 32.2h-2v4l3.6 1q16.4 5.5 29.4 17l1.9 1.6a75 75 0 0 1 21.4 50c.8 23.5-5.2 44-21.2 61.3a91 91 0 0 1-30.1 20.1l-3.2 1.5c-9.8 4.2-20.3 5.8-30.8 7.5l-2.9.5c-5.6.8-11.3.6-17 .6h-117c-2.1-.1-2.1-.1-3.1-1.1l-.2-9.6-.1-7.9v-5.8l-.3-26.3a15292 15292 0 0 1-.5-151c0-68.6 0-68.6.5-96.7v-2.7l.3-11c.5-5 2.6-5.3 7-5.3m36.6 28.7-6.5.2h-2.7c-2.2.4-2.2.4-4.2 2.4-.3 2-.3 2-.3 4.4v94.4l-.1 3v5.3l.4 1.9c3.9 2.6 7.1 2.3 11.6 2.3h65.2c13.1 0 25.8-.1 38.3-5l2-.7a56 56 0 0 0 30.5-30 61 61 0 0 0-.8-44.7c-7-15-18.5-24.2-33.8-29.9a125 125 0 0 0-34.6-3.7l-22.4-.3h-4.3a910 910 0 0 0-38.3.4M3380 1521c-1.2 2.4-1.1 3.9-1.1 6.6v2.9l-.1 39.2-.2 56.6v8.7l.4 2c4 2.6 7.3 2.3 11.8 2.3h67.2c11.2 0 22-.2 33-2.3l3.2-.6c15-3 30.9-12.6 39.5-25.2a65 65 0 0 0 7.1-47.5 59 59 0 0 0-26.8-33.7c-16.5-8.8-34-9.5-52.2-9.7h-6.1l-49-.4h-21.6c-2.1.1-2.1.1-5.1 1.1m-1777.7-483.2 3.2.2h3.4l17.7.4q15.3.3 30.7 1c37.1 1.9 74.3 1.8 111.4 1.7h13.5q50.4.1 100.7-.5l3.9-.1q17.6-.3 35.1-1a882 882 0 0 1 44-.9h19.7c4 .7 5.7 3.4 7.9 6.6l1.3 2.3 1.6 2.7 1.6 2.9a603 603 0 0 0 13 21.5l12.8 20.3 1.6 2.6 1.5 2.4 1.3 2.1c1 2.5.5 3.5-.2 6q-24.7 0-49.5-.4h-3.9q-29-.6-58-1.7a2187 2187 0 0 0-51.9-1.5q-47-.7-94-.6h-7.1c-42 0-83.8.3-125.7 2.1l-9.4.4-2.2.1c-24.4 1-48.9.9-73.3.6.6-3.5 1.3-6 3.3-9l1.4-2.1 1.6-2.4 3.2-5.1 1.8-2.7 8.5-13.6 1.6-2.7 9-14.6 1.6-2.7 2-3.1 1.3-2.5c3.9-6.4 6.4-8.6 14-8.7M1790 493l4 1 .3 2.4a1193 1193 0 0 0 10.5 61.3l3.8 21.4a340 340 0 0 0 3.8 18.7l3.5 16.2.5 2.3 1 4.6q4.9 24 10.7 48.1l3 13a1791 1791 0 0 0 25.3 97.6 2066 2066 0 0 0 17.4 60.5l.8 2.7c.4 2.2.4 2.2-.6 4.2-13.2.3-26.2-.6-39.4-1.4l-6.4-.4-27.7-1.8-3.8-.2c-29.2-1.5-58.7 1.8-87.7 3.8a12 12 0 0 1 .1-8.6l.8-2.8 1-3 1-3.2 7.5-24.9 1.1-3.8q8.7-28.5 15.9-57.2 1.6-6.8 3.6-13.4 2.9-10 5-20.2 2.3-10.7 5-21.2c0-.5 0-.5.7-3.2l3.8-15.6q4.7-19 8.4-38.3 1.9-9.8 4.2-19.4c2.2-9 3.8-18 5.6-27.2l2.7-13.8a1995 1995 0 0 0 13.2-73.8c.4-2.4.4-2.4 1.4-4.4m1200 857c2.7-.4 2.7-.4 6-.4h11.3c9.4.1 9.4.1 11.7 2.4a95 95 0 0 1 .3 10.3v26.8l.1 70.1.2 77a133 133 0 0 0 6.8 47 89 89 0 0 0 47.6 52.8c22.4 9 50.9 9 73.3.2a87 87 0 0 0 46.6-46.3c7.6-20 9.2-39.9 9.3-61v-5.8l.1-32 .4-131.5v-2.3c0-5 0-5 2.3-7.3 2.7-.3 2.7-.3 6-.3h18.3c2.7.3 2.7.3 4.7 2.3q.3 3.8.3 7.7V1535a171 171 0 0 1-6.9 53.8q-3.3 10.5-8.4 20.3l-1.7 3.4a108 108 0 0 1-43.3 43.6l-1.8 1a116 116 0 0 1-32.2 12c-.4 0-.4 0-2.3.6-9 1.9-18 1.8-27 1.8h-2.6c-13.5 0-26.1-1-39.1-5.4l-2.4-.8a111 111 0 0 1-37.6-21.2l-2.5-2c-20.9-17.9-32-45.1-36.7-71.5l-.5-2.8a232 232 0 0 1-2.4-40.8v-64.2l-.1-102.1v-2.2c0-3.7.1-5.2 2.2-8.4m-375.6 34.6 3.3 2.6c4.2 3.4 4.2 3.4 5.3 6.7-4.4 7.2-12.8 18.3-21 21l-1.8-1.7a142 142 0 0 0-101.7-38.4c-35.8 2-65.8 17.2-90 43.3-17.3 19.7-25.5 43.5-30.5 68.8l-.5 2.4c-1 5.6-.8 11.3-.8 17v2a140 140 0 0 0 39.9 99.3 132.6 132.6 0 0 0 180.4-1.6l1.8-1.7 1.5-1.5c1.7-.9 1.7-.9 4-.7 4.6 1.3 7.2 4.7 10.4 8l2.1 2c3 2.9 5 5.1 6.5 9-.5 5.2-4.8 7.6-8.5 10.8a175 175 0 0 1-78.8 37l-2.5.5c-9.5 1.9-18.8 1.9-28.4 1.9h-2.6c-13.5 0-26.4-.7-39.5-4.4l-3-.8a163 163 0 0 1-96.6-77.4c-5.4-9.8-9-20.1-12.4-30.8l-1.3-3.8q-3.8-13.4-4.7-27.2l-.2-2.7a172 172 0 0 1 38.5-124l9-9.8a151 151 0 0 1 78.5-42.5c51.3-11.2 103.5 4.2 143.6 36.7m-959-434.9h12.8q17.8.2 35.5.9a2320 2320 0 0 0 107.6 1h3.4q39.3-.4 78.6-1.4c36.7-.9 36.7-.9 42.7.7a60 60 0 0 1 9.3 14l6 10.5 2 3.4q5.4 10 12 19.2c1.7 2.9 1.7 2.9 1.3 5l-.6 1.9a1053 1053 0 0 1-72.4-1.8l-5.2-.2-2.6-.1-13-.5-2.5-.1-11.7-.5-29.6-1.1c-40.3-1.7-80.7-.7-121 1.1l-29 1.2-3.1.2a3089 3089 0 0 1-55 1.9c-2.9-.1-2.9-.1-4.9-1.1.6-4.8 2.8-8.4 5.2-12.5l1.4-2.2 4.4-7.3 1.6-2.7L1640 961l1.6-2.6 1.6-2.4 1.4-2.2c3.1-4 6-4 10.8-4m1084.6 400h10.4c2.6.2 2.6.2 4.6 2.2.3 2 .3 2 .3 4.7v30l.1 44.3.1 42.4v5.2l.1 36.1v2.6l.3 107.8v9c.1 1.9.1 1.9 1.1 2.9q4.5.4 9.1.6h3q18.4.7 37 .4l50.6-.1h34l10-.1h9.9c2.4.2 2.4.2 5.4 2.2.4 2.6.4 2.6.3 5.8v11c-.1 9-.1 9-1.3 10.2l-7.3.1h-47.2l-135.5-.1c-1.3-2.5-1.1-4.3-1.1-7v-303.6c.1-2.4.1-2.4 1.1-5.4 4.3-2.2 10.2-1.2 15-1.2M1700.9 873.5h45l62.7-.1h74.6c4 0 5.6.5 8.7 3a59 59 0 0 1 7.2 11l1.8 3.2 1.8 3 7.3 12.7 3.8 6.1c1.2 2.6 1.2 2.6.9 5l-.7 1.6-4.8-.1-4.4-.1-12.6-.4-25.6-.6q-29.4-.7-58.8-2.1a689 689 0 0 0-57.6-.1q-11.4.1-22.9.9-17 1-34.3 1l-7 .2-17 .3c-1-3.2-1.1-3.7.4-7l4.8-7.4 1.4-2.2q4.8-8.1 9.2-16.3l1.5-2.6 1.3-2.4c3.7-5.6 6.6-6.7 13.3-6.6"/><path fill="#C0A16C" d="M2177.1 1859c5.1 4.8 9 11 9.6 18-.4 6-4.3 11.4-8.3 15.7a23 23 0 0 1-15.4 6.3 35 35 0 0 1-21.4-14.2 17 17 0 0 1-1.6-13.8 27 27 0 0 1 13-16 26 26 0 0 1 24.1 4m-1242.8-3c5.2 2.9 8.6 6.4 10.7 12 1 6.8.7 14-3 20a24 24 0 0 1-12 9c-7.7.8-15.1 1.3-21.5-3.7l-1.5-1.3-2.4-1.8c-4-5.5-4-12-3.2-18.5 1.6-7.2 5.9-11.4 11.7-15.6 6.4-3.8 14.6-3 21.2-.2"/><path fill="#f7f5ef" d="M1459.7 1834.3h2.6a37 37 0 0 1 26.3 11.9c8.4 10.7 9.7 21.6 8.4 34.8a35 35 0 0 1-13.2 20.9 42 42 0 0 1-29.8 7.1 40 40 0 0 1-25.3-15.8 42 42 0 0 1-5.7-29.2 39 39 0 0 1 15.6-23.6 38 38 0 0 1 21-6m-25 20.5a33 33 0 0 0-4.2 23.6 34 34 0 0 0 16.5 21.6c7 3.5 16.6 3.3 24 1.1q12.9-6 18-19.1c2.7-8.8 1.5-18-2.3-26.3a33 33 0 0 0-18.1-14c-13.7-3.4-25.5 2.2-34 13m-1086.9-15.5 2.4 1.7 2 1.4a35 35 0 0 1 12.8 20.3c1.3 12.7 0 23-7.8 33.3a39 39 0 0 1-28 13.9c-9.4.5-18.6-3-26-8.9a40 40 0 0 1-13-30 37 37 0 0 1 12.7-27.9 39 39 0 0 1 44.9-3.8m-42.7 11.8a33 33 0 0 0-7.3 23.6A36 36 0 0 0 312 1899c6.7 4 15.6 5 23.2 3.4a35 35 0 0 0 20.1-17c3.5-8.7 4-16.6.6-25.4a33 33 0 0 0-16.6-16.9 31 31 0 0 0-34.4 8m832.5-15.8q5.6 1.2 10.6 3.7l2.3 1a36 36 0 0 1 17 20.8 41 41 0 0 1-4.8 31.6 37 37 0 0 1-26.5 15.6q-7.5.5-15.1.3h-4c-9.6 0-9.6 0-11.9-2.3-.3-2.8-.3-2.8-.3-6.5v-59.7l.3-2.8c7.7-5.1 23.4-2.9 32.4-1.7m-25.4 8.7c-.4 2.4-.4 2.4-.4 5.4v7l.1 13.6v10.1l.1 11.3v6.4c.2 2.2.2 2.2 1.2 3.2q5.7.4 11.4.3l3.2.1a36 36 0 0 0 26.7-9.4 35 35 0 0 0 6.7-26q-2.9-12.5-13.4-19.6a47 47 0 0 0-23.9-4.6h-2.4c-6 0-6 0-9.3 2.2m661.7-9.3h10.8c10.6 0 22.7.2 31 7.7a23 23 0 0 1 5.9 17.2 23 23 0 0 1-7.6 14.4c-5.9 4-5.9 4-9.8 4a17 17 0 0 0 5 11l5.2 7 1.4 2c2.1 2.9 3.8 5.4 4.4 9l-1 1c-3.3 0-3.3 0-7-1a40 40 0 0 1-5-6.4l-1.3-2-2.5-3.8-5.1-7.5-1.6-2.4c-1.5-1.9-1.5-1.9-4.5-3.9l-8.6-.2h-2.4c-5.9 0-5.9 0-7 1.2l-.2 5.3-.1 3.2-.3 10-.1 3c-.3 2.5-.3 2.5-2.3 4.5-3.5-.5-3.5-.5-5-2l-.1-6.4v-13.3l-.1-42.8v-3.6c.4-5.4 3.2-5.2 8-5.2m-.7 9.3c-.2 2.9-.2 2.9-.2 6.5v8.1l.2 14.4c4 2 8.8 1.3 13 1.3l3.1.1c8.4 0 14.6-1.5 20.9-7 3.5-4.2 3.3-7.3 3.3-12.6-.4-3.9-1.7-6-4.3-8.8-6.7-5-14.3-4.2-22.2-4.2h-9.5c-2.3.2-2.3.2-4.3 2.2m-1052.3-9.2c8.6-.2 17.2.4 24.2 6a24 24 0 0 1 7.2 16.5c-.4 7.2-3 12.6-8.2 17.7-6.5 4-6.5 4-10 4 1.4 4.2 3.5 7.3 6.2 10.8 5.8 7.5 5.8 7.5 8.4 11.3l1.5 2c.9 1.9.9 1.9-.1 4.9-3 .2-4.3.2-7-1-3.1-3.3-5.5-7.2-8-11l-5.4-7.6-1.3-1.9c-3-4.4-3-4.4-5.3-5.5h-18l-.4 12.4v3.5l-.2 3.4v3.2c-.4 2.5-.4 2.5-2.4 4.5-2.6-.4-2.6-.4-5-1l-.1-57v-10.2c.1-2.8.1-2.8 1.1-3.8l8.7-.6h2.7zM704 1844c-.3 2.8-.3 2.8-.3 6.3v18.9c.3 2.8.3 2.8 2.3 4.8 3.9.5 7.7.3 11.6.3h3.3c7.2 0 13.4-.3 19.2-5 3.4-4.5 4.8-8.1 4.4-13.8-.9-4.3-2.4-7.3-5.5-10.5-6.7-3.6-14-3.4-21.4-3.3h-3.3c-8 0-8 0-10.3 2.3m2430.8-9.4 6.3-.1c9.7 0 18.4 1.3 26.9 6.2 5.5 6.2 6.7 12 6.4 20.2-.7 5.6-2.1 9.2-6.6 12.9-3.2 2.2-6 4-9.8 5.2.5 4.3 2 6.8 4.7 10.3l2.2 3 4 5c4.1 5.1 4.1 5.1 4 8.7l-.9 2c-3 0-5.2-.2-7.4-2.3l-4-5.6-1.5-2-8.2-12-1.7-2.3c-1.2-1.8-1.2-1.8-2.2-2.8l-4-.1h-12.3c-1.7.1-1.7.1-2.7 1.1l-.2 5.3-.1 3.2-.4 13c-.3 2.5-.3 2.5-2.3 4.5-2.6-.4-2.6-.4-5-1l-1.3-66c.3-3 .3-3 1.6-4.9 4-2.6 9.9-1.6 14.5-1.5m-7.8 9.4c-.2 2.9-.2 2.9-.2 6.5v12.2c0 10.2 0 10.2 1.2 11.3q5.8.4 11.5.3l3.2.1c7.4 0 14.3-.7 20-6 3.7-4.4 4.7-7.3 4.6-13a15 15 0 0 0-4.3-9.4c-6.9-4.6-14-4.6-22-4.4h-3.4c-8.3.1-8.3.1-10.6 2.4m-489.2-9.5h12.4c8.9 0 18 .4 25 6.4a23 23 0 0 1 1.4 32l-2.6 2.1-2 1.7a16 16 0 0 1-7 2.3q2 5.2 5.2 9.7l5.9 8 1.9 2.7 1.8 2.4c1.2 2.2 1.2 2.2.9 4.5l-.7 1.7c-2.6 0-2.6 0-6-1-5.5-5.3-9.5-12.6-13.6-19a42 42 0 0 0-5.4-7c-2-.2-2-.2-4.6-.2h-2.7l-12.7.2v2.2l.1 9.6v3.4l.1 3.3v3c-.2 2.5-.2 2.5-2.2 5.5l-5-1c-1.4-2.8-1.2-5.1-1.2-8.2v-8.3l-.2-25.5v-23c1-6.6 5.1-7.5 11.2-7.5m-2.8 9.5c-1 6-1.1 12.2-1.2 18.4v2.4c0 4 0 5.9 2.2 9.2 2.5.4 2.5.4 5.7.4h10.6c7 0 12.2-.2 17.6-5.1l1.4-1.8 1.5-1.8c2.6-3.7 2.5-7.3 2.2-11.7a21 21 0 0 0-7-10c-6.7-2.1-13-2.3-19.9-2.3h-8.9c-2.2.3-2.2.3-4.2 2.3m-2212.3-9.4h12.5c9.8 0 19.3.2 26.8 7.3l2.2 2c5 5.8 4.4 12.8 3.8 20.1-1.7 5.7-6 9.7-11 13-2.8.7-2.8.7-5 1 .4 5.8 2.8 9 6.3 13.4q5.5 7 9.7 14.6c-2 2-2 2-4.7 2.2-5-1.8-7-5.5-9.9-9.8l-6.4-9.4c-4.7-6.8-4.7-6.8-7-8l-4.1-.1h-7.6l-6.3.1-.4 12.4v3.5l-.2 3.4v3.2c-.4 2.5-.4 2.5-2.4 4.5-2.6-.4-2.6-.4-5-1l-1.2-62.3-.1-3.7c.3-3 .3-3 1.6-4.9 2.7-1.8 5.2-1.5 8.4-1.5m-1.7 9.4c-.2 2.9-.2 2.9-.2 6.5v12.2c0 10.2 0 10.2 1.2 11.3q6 .4 12 .3l3.5.1c8.6 0 13.8-1.2 20.4-7 3.3-3.8 3.4-7.3 3.4-12.1-.5-3.6-2-5.6-4.3-8.3-7.2-5.6-13.3-5.2-22.1-5.2h-9.6c-2.3.2-2.3.2-4.3 2.2m1569.4-.7c3.7 6.3 6 12.4 4 19.7-3 9-8.4 12.6-16.4 17q4.4 8 9.7 15.3c4.8 6.8 4.8 6.8 6.3 9.7l-1 3c-2.6 0-2.6 0-6-1-1.4-1.5-1.4-1.5-2.8-3.5l-3.2-4.5-1.6-2.2-6.3-9-1.5-2.3-1.4-2c-1.2-1.5-1.2-1.5-3.2-2.5l-4.4-.1h-5.3l-9.3.1-1 26-5 1c-2.4-3.6-2.3-5.2-2.3-9.5v-57.7c.3-2.8.3-2.8 2.3-4.8 2.5-.3 2.5-.3 5.5-.4l3.4-.2h3.6l3.5-.2c12-.4 23.2-.7 32.4 8.1m-43.4.7c-.2 2.6-.2 2.6-.2 5.8v10.8c0 9 0 9 1.2 12.4 4 2 8.8 1.2 13.1 1.3h3.1c7.1 0 13.1-.4 18.9-5 3.7-4.8 4.7-8.6 4.4-14.7-.7-3.8-2-5.9-4.5-8.6-7.2-4.5-14.5-4.2-22.7-4.2h-9c-2.3.2-2.3.2-4.3 2.2m796.4-9.3h38.7c1.9.3 1.9.3 3.9 2.3-.1 2-.1 2-1 4-3.7 2.7-7.9 2.2-12.2 2.2h-2.4l-19.9-.3-5.5.1c-1.6 1.6-1.1 3.4-1.1 5.6v14.3c.1 2.1.1 2.1 1.1 4.1l34 1 2 4-1 2h-3.2l-24 .7h-2.4c-5.3.2-5.3.2-6.4 1.3l-.1 7.8v12c.1 2.2.1 2.2 1.1 4.2l17.6.5q11.8.1 23.4 1.5l1 3-2 3c-2 .4-2 .4-4.6.4h-9.3l-23.6-.2h-8.6c-1.9-.2-1.9-.2-2.9-1.2l-.2-8.6V1887l-.2-43.4v-3.7l.4-2.9c3.1-2 3.9-2.3 7.4-2.3m288.6.3c2.9.1 4.4.4 6.4 2.5q3.1 5.2 5.3 10.6l4.3 9.9q7.5 17 15.9 33.8l2.6 5.3 1.5 3c1.1 3.2 1 4.8 0 7.9-2.3-.2-2.3-.2-5-1-2.7-3.5-4.3-7.8-6-12-1-2-1-2-3-5q-4.3-.5-8.4-.3h-2.6l-18.6.1h-2.4c-5.8 0-5.8 0-8 1.2l-2 3.6-2 4.4c-3.9 7.9-3.9 7.9-5 9h-5c-1.1-2.8-1-3.9 0-6.8l1.5-3.2 1.7-3.5 1.8-3.7 10.9-23.6q4.8-11.3 10.1-22.2l1.3-2.6c1.3-2.9 2.5-5.2 4.7-7.4m1 14c-4.1 4.5-6.2 10.5-8.7 16l-1.5 3.3-1.5 3.2-1.3 3c-1 2.5-1 2.5-1 6.5 4.5 2.2 10.6 1.2 15.5 1.3h10.8q1.4 0 2.7-.3l2-3c-.4-2-.4-2-1.3-4l-1-2.5-1.2-2.5-1.1-2.6q-4.2-9.4-9.4-18.4zm-1808.6-14.4h38.6c2.5.5 3.4 1.4 5 3.4l-2 4-40 1-1 24 37 1 1 4c-3 3-6.1 2.4-10 2.4h-2.5l-25.5.6-.2 11.3v6.3l-.1 3c.3 2.4.3 2.4 1.4 4.2 2.9 1.8 5.3 1.5 8.7 1.5h2l6.4-.2c17-.3 17-.3 23.8.9l1 5c-1.6 1.6-3.3 1.1-5.5 1.2l-32.8.1h-8.6l-2.1-.3c-2.4-3.6-2.3-5.2-2.3-9.4v-57.7c.3-2.9.3-2.9 1.5-4.8 2.3-1.4 3.6-1.5 6.2-1.5m1702.1.2c9.3-.3 18.1 1.2 25.6 7 4.6 4.6 6.4 9.5 6.9 16a25 25 0 0 1-6 16.4c-6.3 6-14.2 7.8-22.5 8.1l-6.3.3h-3.3l-7.9.4v2l.1 9.4v3.2l.1 3.2v2.9c-.2 2.3-.2 2.3-2.2 4.3-2.6-.4-2.6-.4-5-1a27 27 0 0 1-1.1-9.3v-12.4l-.1-40v-3.5c.2-2.8.2-2.8 2.2-5.8a57 57 0 0 1 7.3-.7h2.2zm-13.5 8.2-.2 13.2-.1 6.7v8l.3 3.1c3.6 2.4 6.4 2.3 10.6 2.2h2.1c8.4-.2 15.7-.4 22-6.6 2.8-3.4 3.2-6.7 3.7-11-.6-5.1-2-9.5-6-13-6.8-4.1-14-3.8-21.7-3.7h-7.8c-1.9.1-1.9.1-2.9 1.1m405.3-8.6h2.5a31 31 0 0 1 19.2 6.6l1 3-4 4a66 66 0 0 1-7-3c-6-3-11.3-4-18-3-4.5 1.5-7.3 3-10 7-.8 6.8-.8 6.8 2 11.1a19 19 0 0 0 10 5.5l4 1.2 2 .6q4.6 1.5 9.1 3.2l3.1 1a20 20 0 0 1 10.8 10.4c1.6 6 1 10.4-1.8 16a24 24 0 0 1-14 10.6q-17 3.3-31.8-5.6c-2.4-2-2.4-2-3.5-4 .1-2 .1-2 1.5-3.7l1.6-1.3q3.7 1.4 7.1 3.3c7.6 4.6 15.3 4.7 23.9 3.7a15 15 0 0 0 9-7c.8-4.5.7-8-1.9-11.8a52 52 0 0 0-17-7.3c-9.5-2.7-16.4-5.4-22.1-13.9-1.7-5-1.4-8.6.2-13.6 5.2-9.6 13.5-13.2 24-13m-1719.2.6c2.6.4 2.6.4 5 1a41 41 0 0 1 1 12.5v3l-.4 25.5v3c-.2 8.8-2.9 16-9 22.5a32 32 0 0 1-21 7.5c-9.5-.7-16.7-3-23.7-9.7a32 32 0 0 1-5.9-12.3l-.5-1.9q-.7-3.3-.6-6.7V1840c.1-2 .1-2 1.1-4h5c1.5 1.5 1.1 3 1.2 5.2l.3 33.7c.2 6.8.5 14.7 5.2 20 6.4 5.8 12 6.7 20.5 6.5 6-.6 11.3-2.4 15.3-7.2 2.7-4.5 3.6-8.8 3.7-14v-6l.4-26.6v-3.2l.1-2.8v-2.6c.3-2 .3-2 2.3-4m-1366.1 1.3q4.2 2.2 8.1 4.7v5c-4.1 1.2-6.4 1-10.2-.9l-2-1a24 24 0 0 0-14.8-2.1 20 20 0 0 0-10 6.3c-1.4 3.7-1 6 0 9.7 5 7 13.7 8.6 21.6 10.9 7.4 2.2 14 5.4 18.4 12.1a20 20 0 0 1 .2 15.6A25 25 0 0 1 227 1909l-2 .5a44 44 0 0 1-29.3-6.8c-1.7-1.7-1.7-1.7-2-4.3.3-2.4.3-2.4 1.3-3.4 4.2-.6 6.5.8 10 3q10.9 6 23 3c4.4-2.2 7.2-4.4 9-9 .2-3 .2-5.3-1-8-5-5.4-11-7-18-9-17-5.3-17-5.3-22-12.9a20 20 0 0 1-.1-15.4c6.8-12.4 24.4-15.5 37-10.4m1139.5 4c2.6 1.7 2.6 1.7 4.6 3.7-.4 2.6-.4 2.6-1 5a23 23 0 0 1-13-5 33 33 0 0 0-25.5.8c-8.2 4-11 10-14.5 18.2a33 33 0 0 0 2 24 33 33 0 0 0 21.9 14.9c8.8.7 15.7-1.7 22.8-6.8 2.9-1.4 4.3-1 7.3-.1-.3 3-.6 4.6-2.7 6.7a42 42 0 0 1-33.5 6.6 37 37 0 0 1-22.6-17 47 47 0 0 1-3.6-31.5 39 39 0 0 1 18.7-22 42 42 0 0 1 39.1 2.5m1144.6-5.2c4.8 2 6.6 9.4 8.6 14l6.3 14.7q6.3 14.5 12.1 29.2h3l6.5-15.3 2.1-5.2 2.2-5 2-5 5.2-12.4 1-2.4 1.7-4.4c2.5-6.4 2.5-6.4 5.3-8.3 2.7.3 2.7.3 5 1-.4 7.3-3.6 13.4-6.7 20-6.8 14.8-6.8 14.8-9.5 22.4q-3.4 9.4-7.6 18.5l-1.1 2.6-1.1 2.5-1 2.2c-1 1.8-1 1.8-3 3.8-2.4.5-2.4.5-5 0-4.3-5.3-6.5-11.6-9.1-17.9l-1.5-3.4-4.4-10.7-14-33.4c-1-2.6-1-2.6-1-6.6 2-1 2-1 4-.9m-116.9.1 1.9.8c1.2 3.6.7 4.2-.7 7.6l-1.3 3-1.4 3.2-14 33-5.1 12.3-.9 2.2a36 36 0 0 1-6.6 10.7c-4.5-.5-4.5-.5-6.5-2.6a56 56 0 0 1-4.4-9l-.8-2q-1.5-3-2.6-6.2l-1.7-4-9.7-24-4-9.1q-3-6.4-5.3-13.1l1-2c4.6-.4 4.6-.4 6.6 1.3 2.4 2.9 3.6 6.3 5 9.8l1 2.4 3.2 7.7 8.2 19.8 1 2.3 2.5 6.3 1.5 3.6c1 2.8 1 2.8 1 4.8h4l.5-1.7c2-7.5 5-14.6 8.2-21.7l3.2-7.5 1.6-3.6 4-9.5 1-2.6 2-4.9c3.2-7.7 3.2-7.7 7.6-7.3m-743.6.4c3.2 1.8 3.8 3.1 5.2 6.5l1.4 3.2 1.5 3.5 8.1 19.3q5.3 12.4 10.3 24.9h3l.7-1.8 15-35.5 2.3-5.5 1.4-3.4 1.3-3a50 50 0 0 1 4.3-7.8c2.7-.3 2.7-.3 5 0 1.4 4.1.1 5.7-1.5 9.7l-.8 2-4.7 11.2q-9.2 22.1-19 44.1l-1 2.3c-1 1.7-1 1.7-4 2.6-3 .1-3 .1-4.5-1-2-2.5-2.8-5-4-7.8q-4.4-11.5-9.3-22.7l-11.5-26.9-1.1-2.7-1-2.6-1-2.2c-.6-2-.6-2-.6-6 2-1 2-1 4.5-.4m-1131.5-.7h9.9l25.5-.1h9.3c2.3.2 2.3.2 5.3 2.2-.9 3.9-.9 3.9-2 5l-4.7.3h-2.8l-6 .3-2.8.1-2.7.1c-2 .2-2 .2-3 1.2l-.2 5.8v5.7l-.3 24-.2 20.6v3.3c-.3 2.6-.3 2.6-2.3 4.6-2.6-.4-2.6-.4-5-1a61 61 0 0 1-1-15.2v-38.2l.1-6.3c-.1-2.3-.1-2.3-1.1-4.3h-2l-12-.6h-3l-2.9-.2c-2.1-.2-2.1-.2-3.1-1.2v-5c2.5-1.2 4.2-1.1 7-1.1m1934.1.3c1.9.8 1.9.8 2.9 2.8l.2 8.4v56.8c-.2 2.8-.2 2.8-2.2 4.8-2.6-.3-2.6-.3-5-1-1.4-2.8-1.1-5.2-1.2-8.3v-12.9l-.2-41.3v-3.6c.4-2.9.4-2.9 1.8-4.8 1.6-1.1 1.6-1.1 3.7-1M637 1836c1.9 1.9 1.1 5 1.1 7.4v13.3l.1 42.8v3.6c-.2 2.9-.2 2.9-2.2 4.9-3.5-.5-3.5-.5-5-2l-.1-6.5v-38.7l.1-24.8c2.5-1.3 3.4-.8 6 0m2596 0 5 1q1 23.7 1.1 47.4v3.5c0 12.3 0 12.3-1.1 18.1-2 1.3-2 1.3-4 2l-2-1c-3-18.1-1.1-37.6-.6-56l.1-2 .2-6 .1-3.4c.2-2.6.2-2.6 1.2-3.6m-1355-1 4 2 .2 62.4v3.7c-.2 2.9-.2 2.9-2.2 4.9-2-.2-2-.2-4-1-1.4-2.8-1.1-5.2-1.2-8.3v-22.3l-.2-35.5c.4-2.9.4-2.9 2-4.8zm-624-19c-.8 5-4.2 7.8-8 11-3 1.4-3 1.4-5 2l-2-3 3.9-5 2.2-2.7c3-3.7 4.4-3.4 8.9-2.3"/></svg>